<?xml version="1.0" encoding="UTF-8"?>
<svg xmlns="http://www.w3.org/2000/svg" viewBox="0 0 512 512" role="img" aria-label="EMS icon">
  <defs>
    <linearGradient id="bg" x1="0" y1="0" x2="1" y2="1">
      <stop offset="0%" stop-color="#0b1f33"/>
      <stop offset="100%" stop-color="#123a63"/>
    </linearGradient>
    <linearGradient id="accent" x1="0" y1="0" x2="1" y2="0">
      <stop offset="0%" stop-color="#26d07c"/>
      <stop offset="100%" stop-color="#47e0ff"/>
    </linearGradient>
  </defs>

  <rect x="20" y="20" width="472" height="472" rx="96" fill="url(#bg)"/>

  <path d="M128 238 L256 132 L384 238" fill="none" stroke="#d8ecff" stroke-width="22" stroke-linecap="round" stroke-linejoin="round"/>
  <rect x="156" y="230" width="200" height="156" rx="18" fill="none" stroke="#d8ecff" stroke-width="18"/>
  <rect x="228" y="286" width="56" height="100" rx="10" fill="none" stroke="#d8ecff" stroke-width="14"/>

  <path d="M78 320 C150 320, 170 250, 212 250" fill="none" stroke="url(#accent)" stroke-width="18" stroke-linecap="round"/>
  <rect x="52" y="296" width="34" height="48" rx="9" fill="none" stroke="url(#accent)" stroke-width="10"/>
  <line x1="52" y1="308" x2="42" y2="308" stroke="url(#accent)" stroke-width="9" stroke-linecap="round"/>
  <line x1="52" y1="332" x2="42" y2="332" stroke="url(#accent)" stroke-width="9" stroke-linecap="round"/>

  <g stroke="#ffe8b3" stroke-width="10" stroke-linecap="round">
    <line x1="308" y1="174" x2="346" y2="174"/>
    <line x1="308" y1="194" x2="346" y2="194"/>
    <line x1="364" y1="156" x2="364" y2="212"/>
    <line x1="336" y1="250" x2="374" y2="250"/>
    <line x1="336" y1="274" x2="374" y2="274"/>
  </g>

  <path d="M296 294 l20 -44 l20 44" fill="none" stroke="#ffe8b3" stroke-width="10" stroke-linecap="round" stroke-linejoin="round"/>
  <line x1="304" y1="278" x2="329" y2="278" stroke="#ffe8b3" stroke-width="10" stroke-linecap="round"/>

  <path d="M108 414 H404" stroke="#3d6f9e" stroke-width="10" stroke-linecap="round"/>
</svg>